<svg width="143" height="52" viewBox="0 0 143 52" fill="none" xmlns="http://www.w3.org/2000/svg">
<path d="M13.1147 16.7227C13.1147 19.2617 12.6812 21.1484 11.814 22.3828C10.9468 23.6172 9.59131 24.2344 7.74756 24.2344C5.92725 24.2344 4.57959 23.6328 3.70459 22.4297C2.82959 21.2188 2.37646 19.4141 2.34521 17.0156V14.1211C2.34521 11.6133 2.77881 9.75 3.646 8.53125C4.51318 7.3125 5.87256 6.70312 7.72412 6.70312C9.56006 6.70312 10.9116 7.29297 11.7788 8.47266C12.646 9.64453 13.0913 11.457 13.1147 13.9102V16.7227ZM10.9468 13.7578C10.9468 11.9219 10.689 10.5859 10.1733 9.75C9.65771 8.90625 8.84131 8.48438 7.72412 8.48438C6.61475 8.48438 5.80615 8.90234 5.29834 9.73828C4.79053 10.5742 4.52881 11.8594 4.51318 13.5938V17.0625C4.51318 18.9062 4.77881 20.2695 5.31006 21.1523C5.84912 22.0273 6.66162 22.4648 7.74756 22.4648C8.81787 22.4648 9.61084 22.0508 10.1265 21.2227C10.6499 20.3945 10.9233 19.0898 10.9468 17.3086V13.7578ZM9.54053 48H7.36084V33.5508L2.98975 35.1562V33.1875L9.20068 30.8555H9.54053V48Z" fill="#BDBDBD"/>
<path d="M126.018 16.7227C126.018 19.2617 125.585 21.1484 124.718 22.3828C123.85 23.6172 122.495 24.2344 120.651 24.2344C118.831 24.2344 117.483 23.6328 116.608 22.4297C115.733 21.2188 115.28 19.4141 115.249 17.0156V14.1211C115.249 11.6133 115.682 9.75 116.55 8.53125C117.417 7.3125 118.776 6.70312 120.628 6.70312C122.464 6.70312 123.815 7.29297 124.682 8.47266C125.55 9.64453 125.995 11.457 126.018 13.9102V16.7227ZM123.85 13.7578C123.85 11.9219 123.593 10.5859 123.077 9.75C122.561 8.90625 121.745 8.48438 120.628 8.48438C119.518 8.48438 118.71 8.90234 118.202 9.73828C117.694 10.5742 117.432 11.8594 117.417 13.5938V17.0625C117.417 18.9062 117.682 20.2695 118.214 21.1523C118.753 22.0273 119.565 22.4648 120.651 22.4648C121.721 22.4648 122.514 22.0508 123.03 21.2227C123.553 20.3945 123.827 19.0898 123.85 17.3086V13.7578ZM139.975 24H128.796V22.4414L134.702 15.8789C135.577 14.8867 136.178 14.082 136.507 13.4648C136.843 12.8398 137.01 12.1953 137.01 11.5312C137.01 10.6406 136.741 9.91016 136.202 9.33984C135.663 8.76953 134.944 8.48438 134.046 8.48438C132.968 8.48438 132.128 8.79297 131.526 9.41016C130.932 10.0195 130.635 10.8711 130.635 11.9648H128.468C128.468 10.3945 128.971 9.125 129.979 8.15625C130.995 7.1875 132.35 6.70312 134.046 6.70312C135.632 6.70312 136.885 7.12109 137.807 7.95703C138.729 8.78516 139.19 9.89062 139.19 11.2734C139.19 12.9531 138.12 14.9531 135.979 17.2734L131.409 22.2305H139.975V24Z" fill="#BDBDBD"/>
<line y1="-1" x2="43.8219" y2="-1" transform="matrix(-0.706805 0.707408 -0.706805 -0.707408 81.9285 0)" stroke="#E0E0E0" stroke-width="2"/>
</svg>
