<svg width="54" height="53" viewBox="0 0 54 53" fill="none" xmlns="http://www.w3.org/2000/svg">
<rect x="1.4353" y="0.5" width="52" height="52" fill="#F9F9F9" stroke="#F2F2F2"/>
<path fill-rule="evenodd" clip-rule="evenodd" d="M18.9353 26.5C18.9353 26.2239 19.1592 26 19.4353 26L35.4353 26C35.7114 26 35.9353 26.2239 35.9353 26.5C35.9353 26.7761 35.7114 27 35.4353 27L19.4353 27C19.1592 27 18.9353 26.7761 18.9353 26.5Z" fill="#333333"/>
<path fill-rule="evenodd" clip-rule="evenodd" d="M31.5817 22.6464C31.777 22.4512 32.0936 22.4512 32.2889 22.6464L36.1424 26.5L32.2889 30.3536C32.0936 30.5488 31.777 30.5488 31.5817 30.3536C31.3865 30.1583 31.3865 29.8417 31.5817 29.6464L34.7282 26.5L31.5817 23.3536C31.3865 23.1583 31.3865 22.8417 31.5817 22.6464Z" fill="#333333"/>
</svg>
