<svg width="54" height="53" viewBox="0 0 54 53" fill="none" xmlns="http://www.w3.org/2000/svg">
<rect x="1.43506" y="0.5" width="52" height="52" fill="#F9F9F9" stroke="#F2F2F2"/>
<path fill-rule="evenodd" clip-rule="evenodd" d="M18.9351 26.5C18.9351 26.2239 19.1589 26 19.4351 26L35.4351 26C35.7112 26 35.9351 26.2239 35.9351 26.5C35.9351 26.7761 35.7112 27 35.4351 27L19.4351 27C19.1589 27 18.9351 26.7761 18.9351 26.5Z" fill="#333333"/>
<path fill-rule="evenodd" clip-rule="evenodd" d="M31.5815 22.6464C31.7768 22.4512 32.0933 22.4512 32.2886 22.6464L36.1422 26.5L32.2886 30.3536C32.0933 30.5488 31.7768 30.5488 31.5815 30.3536C31.3862 30.1583 31.3862 29.8417 31.5815 29.6464L34.728 26.5L31.5815 23.3536C31.3862 23.1583 31.3862 22.8417 31.5815 22.6464Z" fill="#333333"/>
</svg>
