<svg width="53" height="53" viewBox="0 0 53 53" fill="none" xmlns="http://www.w3.org/2000/svg">
<rect x="0.5" y="0.5" width="52" height="52" fill="white" stroke="#F2F2F2"/>
<path fill-rule="evenodd" clip-rule="evenodd" d="M36 26.5C36 26.2239 35.7761 26 35.5 26L19.5 26C19.2239 26 19 26.2239 19 26.5C19 26.7761 19.2239 27 19.5 27L35.5 27C35.7761 27 36 26.7761 36 26.5Z" fill="#333333"/>
<path fill-rule="evenodd" clip-rule="evenodd" d="M23.3536 22.6464C23.1583 22.4512 22.8417 22.4512 22.6464 22.6464L18.7929 26.5L22.6464 30.3536C22.8417 30.5488 23.1583 30.5488 23.3536 30.3536C23.5488 30.1583 23.5488 29.8417 23.3536 29.6464L20.2071 26.5L23.3536 23.3536C23.5488 23.1583 23.5488 22.8417 23.3536 22.6464Z" fill="#333333"/>
</svg>
