<svg width="140" height="52" viewBox="0 0 140 52" fill="none" xmlns="http://www.w3.org/2000/svg">
<path d="M12.1172 16.7227C12.1172 19.2617 11.6836 21.1484 10.8164 22.3828C9.94922 23.6172 8.59375 24.2344 6.75 24.2344C4.92969 24.2344 3.58203 23.6328 2.70703 22.4297C1.83203 21.2188 1.37891 19.4141 1.34766 17.0156V14.1211C1.34766 11.6133 1.78125 9.75 2.64844 8.53125C3.51562 7.3125 4.875 6.70312 6.72656 6.70312C8.5625 6.70312 9.91406 7.29297 10.7812 8.47266C11.6484 9.64453 12.0938 11.457 12.1172 13.9102V16.7227ZM9.94922 13.7578C9.94922 11.9219 9.69141 10.5859 9.17578 9.75C8.66016 8.90625 7.84375 8.48438 6.72656 8.48438C5.61719 8.48438 4.80859 8.90234 4.30078 9.73828C3.79297 10.5742 3.53125 11.8594 3.51562 13.5938V17.0625C3.51562 18.9062 3.78125 20.2695 4.3125 21.1523C4.85156 22.0273 5.66406 22.4648 6.75 22.4648C7.82031 22.4648 8.61328 22.0508 9.12891 21.2227C9.65234 20.3945 9.92578 19.0898 9.94922 17.3086V13.7578ZM8.54297 48H6.36328V33.5508L1.99219 35.1562V33.1875L8.20312 30.8555H8.54297V48Z" fill="#333333"/>
<path d="M125.021 16.7227C125.021 19.2617 124.587 21.1484 123.72 22.3828C122.853 23.6172 121.497 24.2344 119.654 24.2344C117.833 24.2344 116.486 23.6328 115.611 22.4297C114.736 21.2188 114.283 19.4141 114.251 17.0156V14.1211C114.251 11.6133 114.685 9.75 115.552 8.53125C116.419 7.3125 117.779 6.70312 119.63 6.70312C121.466 6.70312 122.818 7.29297 123.685 8.47266C124.552 9.64453 124.997 11.457 125.021 13.9102V16.7227ZM122.853 13.7578C122.853 11.9219 122.595 10.5859 122.079 9.75C121.564 8.90625 120.747 8.48438 119.63 8.48438C118.521 8.48438 117.712 8.90234 117.204 9.73828C116.697 10.5742 116.435 11.8594 116.419 13.5938V17.0625C116.419 18.9062 116.685 20.2695 117.216 21.1523C117.755 22.0273 118.568 22.4648 119.654 22.4648C120.724 22.4648 121.517 22.0508 122.033 21.2227C122.556 20.3945 122.829 19.0898 122.853 17.3086V13.7578ZM128.794 15.4453L129.661 6.9375H138.404V8.94141H131.501L130.986 13.5938C131.822 13.1016 132.771 12.8555 133.833 12.8555C135.388 12.8555 136.622 13.3711 137.536 14.4023C138.451 15.4258 138.908 16.8125 138.908 18.5625C138.908 20.3203 138.431 21.707 137.478 22.7227C136.533 23.7305 135.208 24.2344 133.505 24.2344C131.997 24.2344 130.767 23.8164 129.814 22.9805C128.861 22.1445 128.318 20.9883 128.185 19.5117H130.236C130.369 20.4883 130.716 21.2266 131.279 21.7266C131.841 22.2188 132.583 22.4648 133.505 22.4648C134.513 22.4648 135.302 22.1211 135.872 21.4336C136.451 20.7461 136.74 19.7969 136.74 18.5859C136.74 17.4453 136.427 16.5312 135.802 15.8438C135.185 15.1484 134.361 14.8008 133.329 14.8008C132.384 14.8008 131.642 15.0078 131.103 15.4219L130.529 15.8906L128.794 15.4453Z" fill="#BDBDBD"/>
<line y1="-1" x2="43.8219" y2="-1" transform="matrix(-0.706805 0.707408 -0.706805 -0.707408 80.931 0)" stroke="#E0E0E0" stroke-width="2"/>
</svg>
